PathFileType	4	(X/Y/Z)	D:\TRACE\v60_Jaco2_6-2-23\BothDRS_Motion3_10-platform.trc
DataRate	CameraRate	NumFrames	NumMarkers	Units	OrigDataRate	OrigDataStartFrame	OrigNumFrames
100.00	100.00	      65	5	mm	100.00	5251	      7000
Frame#	Time	Left_Front			Right_Front			Left_Aft			Right_Aft			Post			
		X1	Y1	Z1	X2	Y2	Z2	X3	Y3	Z3	X4	Y4	Z4	X5	Y5	Z5	

5251	52.500	-789.57611	-11.86214	-655.57544	781.11066	-13.59640	-633.09485	-720.30243	26.65064	480.07141	693.89709	26.02546	583.12836	6.14334	1274.28369	-1011.50537	
5252	52.510	-789.44952	-12.37308	-655.74890	781.41064	-14.25785	-633.16473	-720.01776	26.99641	479.87900	694.10846	26.84685	582.75720	6.33081	1273.63928	-1012.78400	
5253	52.520	-789.20776	-13.04242	-656.06628	781.64026	-14.80415	-633.22888	-719.76825	27.36254	479.75778	694.44763	27.19514	582.83026	6.31490	1272.48511	-1013.77527	
5254	52.530	-788.83624	-13.64867	-656.31427	781.89594	-15.37320	-633.34546	-719.59998	27.58965	479.61859	694.80292	27.58781	582.70984	6.80150	1271.76270	-1015.01270	
5255	52.540	-788.41974	-14.28479	-656.95355	782.17108	-15.77551	-633.43066	-719.23083	27.83754	479.51114	694.98865	27.91611	582.46887	7.22418	1271.31897	-1015.87146	
5256	52.550	-788.21246	-14.31602	-656.65161	782.34808	-16.11429	-633.50500	-718.80865	28.33338	479.38297	695.12408	28.25336	582.30908	7.66045	1270.39209	-1016.67334	
5257	52.560	-787.73560	-14.59482	-656.32751	782.76099	-16.85197	-633.71606	-718.64636	28.78059	479.24402	695.62543	28.79404	582.23328	7.88857	1269.34436	-1017.97241	
5258	52.570	-787.82312	-15.52055	-656.54919	783.03137	-17.30300	-633.58197	-718.40308	28.94743	479.11124	695.68665	29.20951	582.23834	7.99931	1268.78650	-1018.97101	
5259	52.580	-787.47919	-16.31826	-656.32050	783.03003	-17.93307	-633.78741	-717.97803	28.80808	479.19473	696.13000	29.72200	581.97925	8.00199	1267.64941	-1019.75684	
5260	52.590	-787.08917	-16.93475	-656.49164	783.64496	-18.56089	-634.33154	-718.11304	30.12679	478.82376	696.36011	30.02787	581.68048	8.80921	1266.99475	-1021.06506	
5261	52.600	-786.79694	-17.17137	-656.74609	784.21674	-18.97419	-634.31116	-717.73010	30.70551	478.49237	696.52380	30.26140	581.55481	8.83027	1266.27734	-1022.08386	
5262	52.610	-786.63995	-17.73738	-656.80933	784.47394	-19.37367	-634.39087	-717.25989	30.82978	478.32840	697.30170	30.98647	581.43152	9.24091	1265.69067	-1023.53192	
5263	52.620	-786.11230	-17.96741	-656.99768	784.74255	-20.01689	-634.50714	-716.99860	30.95751	478.36734	697.48706	31.27404	581.31372	9.53545	1264.70325	-1024.50049	
5264	52.630	-785.74658	-18.40110	-657.11145	785.02759	-20.49168	-634.66119	-716.82050	31.26487	478.11600	697.81482	31.53824	581.12915	10.06182	1263.95691	-1025.63379	
5265	52.640	-785.56921	-18.70528	-657.33044	785.26849	-20.80557	-634.75397	-716.13330	31.15889	477.91406	698.16479	31.88832	581.22675	10.22921	1263.36377	-1026.71582	
5266	52.650	-785.26538	-18.76523	-657.31482	785.68567	-21.13443	-634.89825	-715.80341	31.51285	477.87421	698.33289	32.14587	581.13391	10.62716	1262.65820	-1028.02637	
5267	52.660	-785.08337	-19.57667	-657.57184	785.94977	-21.40953	-635.04456	-715.43048	31.85366	477.78998	698.81006	32.73021	580.90308	10.91404	1262.03430	-1028.81750	
5268	52.670	-784.58612	-20.52257	-657.57318	786.46918	-21.98567	-635.12958	-715.14099	32.18874	477.68976	699.02753	33.03418	580.70398	11.21411	1261.35950	-1029.68958	
5269	52.680	-784.21826	-21.31466	-657.36981	786.53552	-22.59625	-635.14069	-714.80682	32.45636	477.63571	699.54059	33.45924	580.66614	11.73597	1260.54565	-1030.24487	
5270	52.690	-783.80432	-21.74252	-657.35840	786.97888	-23.21891	-635.14471	-714.22070	32.77094	477.56146	699.94867	33.94168	580.58380	12.17349	1259.45227	-1031.16187	
5271	52.700	-783.42487	-22.05346	-657.57367	787.30829	-23.70410	-635.35443	-713.82886	33.12967	477.40329	699.96509	34.15490	580.44116	12.68476	1258.82263	-1031.86792	
5272	52.710	-783.06592	-22.41393	-657.71887	787.76556	-23.99621	-635.26807	-713.92957	33.78923	477.07495	700.58850	34.73629	580.25067	12.79705	1258.53503	-1032.85388	
5273	52.720	-782.72620	-22.67629	-657.92279	788.19165	-24.36130	-635.40955	-713.44635	34.15461	476.86935	700.92126	35.01985	580.18176	13.23719	1257.58130	-1033.90442	
5274	52.730	-782.28491	-23.13886	-657.96564	788.56604	-24.72239	-635.46533	-713.11084	34.30037	476.81369	701.27020	35.28751	580.05255	13.48462	1256.85352	-1034.90503	
5275	52.740	-781.78845	-23.88228	-658.14899	788.87048	-25.12074	-635.62469	-712.71277	34.46542	476.91794	701.69659	35.53227	580.01080	13.93629	1256.43701	-1035.84363	
5276	52.750	-781.75684	-23.80684	-658.18378	789.22412	-25.63362	-635.71698	-712.30414	34.53688	476.80383	702.11652	35.77920	579.93976	14.52198	1255.76392	-1036.83435	
5277	52.760	-781.21503	-24.27333	-658.04602	789.62750	-25.77381	-635.83453	-712.02264	34.81199	476.83780	702.32178	35.82890	579.76489	14.57319	1254.89722	-1037.59900	
5278	52.770	-780.89972	-24.52723	-657.84760	789.94446	-25.92685	-635.93884	-711.64886	35.18022	476.49835	702.60614	36.12518	579.42719	14.95193	1254.61182	-1038.94812	
5279	52.780	-780.41534	-24.80608	-657.98694	790.35730	-26.17886	-635.84979	-711.04871	35.09003	476.44186	702.82111	36.29537	579.23798	15.47293	1254.31750	-1039.82910	
5280	52.790	-779.87787	-25.27660	-658.23853	790.68970	-26.64977	-635.81830	-710.88800	35.52050	476.40430	703.37195	36.69618	579.57660	15.66412	1254.01306	-1040.37805	
5281	52.800	-779.49347	-25.57340	-658.39575	791.00116	-27.07749	-635.84650	-710.58875	35.68741	476.30621	703.78265	36.70168	578.79517	16.08632	1253.48474	-1041.06824	
5282	52.810	-779.28619	-25.82513	-658.51703	791.44800	-27.29524	-635.83337	-710.14417	35.82255	476.33859	704.46124	37.21384	579.47302	16.64315	1252.90881	-1041.49731	
5283	52.820	-778.87238	-26.28353	-658.63525	791.98920	-27.47106	-636.00049	-709.59644	36.36412	476.16086	704.82898	37.22347	579.27124	17.20584	1252.53674	-1041.78076	
5284	52.830	-778.53345	-26.50385	-658.56055	792.33685	-27.75722	-636.08374	-709.50043	36.50100	476.02518	705.18506	37.53380	578.94452	17.60210	1252.15552	-1042.23474	
5285	52.840	-778.48584	-26.34181	-658.57776	792.77417	-28.17494	-636.09692	-709.11017	36.72943	475.99701	705.57330	37.79351	578.99078	17.88120	1251.76160	-1042.45667	
5286	52.850	-778.04523	-26.79481	-658.58704	793.16327	-28.35702	-635.97467	-708.44501	36.50671	475.98260	705.72174	37.75773	578.77783	18.22578	1251.17163	-1042.79407	
5287	52.860	-777.19672	-27.31835	-658.61615	793.48621	-28.67179	-636.07269	-708.22375	36.87475	476.18842	706.08478	37.78727	578.47388	18.22351	1250.66797	-1042.60339	
5288	52.870	-776.54565	-27.45160	-658.57721	793.77759	-28.82511	-636.11725	-707.65918	36.99991	476.14178	706.61407	38.06511	578.35663	18.87914	1250.37695	-1043.01892	
5289	52.880	-776.07367	-27.88113	-658.78113	794.35876	-29.07774	-636.22345	-706.86975	36.98777	475.93878	707.86047	38.96639	578.98206	19.48087	1250.11597	-1043.33093	
5290	52.890	-775.92499	-28.03113	-658.82147	794.73981	-29.21890	-636.22455	-706.86145	37.35181	475.85269	707.41010	38.64150	578.74561	19.91365	1249.94885	-1043.79431	
5291	52.900	-776.03656	-27.72890	-658.82324	795.09131	-29.40516	-636.21454	-706.36841	37.42071	475.84903	707.66681	38.73737	578.70837	20.31285	1249.76392	-1044.37329	
5292	52.910	-775.55011	-27.90210	-658.70837	795.52271	-29.56521	-636.28760	-706.17401	37.48973	475.89862	707.91602	38.77119	578.62927	20.36535	1249.52588	-1044.70422	
5293	52.920	-774.95776	-28.07793	-658.86218	795.82349	-29.66617	-636.33746	-705.62531	37.33060	475.77405	708.62341	38.75732	578.61847	20.86682	1249.31238	-1045.25171	
5294	52.930	-774.57593	-28.33011	-658.85706	796.40631	-29.59850	-636.27838	-705.19916	37.43407	475.69934	709.16180	38.99889	578.66339	21.45421	1249.12036	-1045.78247	
5295	52.940	-774.01837	-28.55878	-658.75427	796.88928	-29.63082	-636.34338	-704.81696	37.64895	475.70209	709.48523	39.18540	578.65491	21.57239	1248.75720	-1045.97510	
5296	52.950	-773.58105	-28.72585	-658.56769	797.25488	-29.79943	-636.42804	-704.43011	37.74207	475.74509	709.83575	39.29905	578.63196	22.20049	1248.72241	-1046.53210	
5297	52.960	-773.17859	-28.84763	-658.45502	797.50220	-30.02231	-636.40936	-704.13739	37.85970	475.67603	710.47656	39.45803	578.64526	22.67563	1248.45435	-1046.82300	
5298	52.970	-772.71204	-28.97666	-658.44586	797.87402	-30.10287	-636.39410	-703.56329	37.75975	475.66998	710.51117	39.81375	579.05121	23.12566	1248.16797	-1047.02124	
5299	52.980	-772.44159	-28.94927	-658.51306	798.39484	-30.09561	-636.36993	-703.21558	37.69160	475.65939	711.17285	39.56102	578.72784	23.41965	1248.06567	-1047.20117	
5300	52.990	-771.98328	-29.20210	-658.56525	798.69714	-30.19861	-636.34937	-702.81152	37.71391	475.63232	711.54291	39.57567	578.72626	23.82240	1247.98206	-1047.22620	
5301	53.000	-771.69385	-29.48633	-658.32452	799.07806	-30.28790	-636.45380	-702.40680	37.84546	475.68265	711.82361	39.52938	578.64532	24.02918	1247.74707	-1046.81628	
5302	53.010	-771.14209	-28.98503	-658.89484	799.56116	-30.28841	-636.28265	-702.02930	37.91435	475.73944	712.17072	39.60249	578.63086	24.56426	1247.65076	-1046.50244	
5303	53.020	-770.84131	-28.97638	-658.83276	799.84882	-30.43399	-636.32446	-701.76910	38.00533	475.67462	712.62640	39.61676	578.62341	24.77128	1247.62512	-1046.40002	
5304	53.030	-770.32544	-29.34263	-658.80170	800.26862	-30.62681	-636.35327	-701.42468	38.00092	475.63766	712.96222	39.62123	578.56464	24.98474	1247.70581	-1046.33740	
5305	53.040	-770.09265	-29.05723	-658.63538	800.62189	-30.67841	-636.38458	-700.88556	37.89122	475.65186	713.19659	39.62500	578.55524	25.29636	1247.80530	-1046.28088	
5306	53.050	-769.69928	-29.10324	-658.53510	801.00922	-30.35700	-636.44928	-700.52887	37.88377	475.67563	713.61481	39.66671	578.56842	26.16826	1248.07092	-1046.38916	
5307	53.060	-769.11658	-28.91234	-658.63470	801.37585	-30.37316	-636.44916	-700.00134	37.45310	475.99295	714.15863	39.67585	578.79321	26.66445	1248.18457	-1046.19580	
5308	53.070	-768.79810	-28.84368	-658.59161	801.75812	-30.41726	-636.39203	-699.75378	37.68058	475.66129	714.60535	39.61662	578.75281	26.89477	1248.32886	-1046.17786	
5309	53.080	-768.59674	-28.86171	-658.54260	802.07800	-30.48514	-636.39117	-699.47485	37.72298	475.68152	714.92737	39.54546	578.73053	27.26232	1248.42432	-1046.10950	
5310	53.090	-768.39148	-28.75594	-658.63336	802.46228	-30.36036	-636.37140	-699.14948	37.77439	475.66058	715.29108	39.50953	578.71930	27.53388	1248.49866	-1046.16016	
5311	53.100	-767.71857	-28.85784	-658.60730	802.88135	-30.26681	-636.37231	-698.71259	37.66871	475.69366	715.61334	39.56641	578.72546	28.03191	1248.52124	-1046.09729	
5312	53.110	-767.72913	-28.20390	-658.86646	803.27753	-30.20179	-636.40479	-698.36884	37.60124	475.70926	716.08722	39.54843	578.77545	28.60159	1248.57556	-1046.14771	
5313	53.120	-767.27411	-28.01505	-658.67773	803.75000	-29.93340	-636.41132	-697.84436	37.40907	475.80780	716.62079	39.42327	578.89313	29.06927	1248.63171	-1046.27588	
5314	53.130	-766.49060	-28.43876	-658.55768	804.06506	-29.85793	-636.39105	-697.50220	37.26820	475.89835	717.10449	39.39013	578.93488	29.40577	1248.76831	-1046.15515	
5315	53.140	-766.50903	-27.89153	-658.58575	804.40717	-29.65084	-636.30865	-697.27521	37.14206	475.99826	717.14716	39.13403	578.96948	29.52042	1249.05798	-1045.99341	
